<svg xmlns="http://www.w3.org/2000/svg" width="24" height="24" viewBox="0 0 24 24" fill="none">
    <path d="M21.8381 8.44501C21.8371 8.44401 21.8381 8.44401 21.8381 8.44501C21.8361 8.44401 21.8361 8.44301 21.8351 8.44101C21.8341 8.44101 21.8341 8.44001 21.8341 8.44001C21.7711 8.34701 21.6891 8.26801 21.5991 8.21101L12.4351 2.13101C12.1801 1.95601 11.7911 1.95601 11.5371 2.13101L2.37115 8.21401C2.27815 8.27101 2.19615 8.35101 2.13315 8.44501C2.04015 8.58501 1.99715 8.74201 2.00015 8.89701V15.057C1.99715 15.21 2.04015 15.366 2.13115 15.505C2.13215 15.506 2.13215 15.507 2.13315 15.508C2.13615 15.514 2.14015 15.518 2.14315 15.523V15.525C2.14415 15.525 2.14415 15.525 2.14415 15.525C2.14515 15.525 2.14515 15.525 2.14515 15.526C2.14615 15.526 2.14615 15.527 2.14615 15.527C2.20915 15.615 2.28615 15.687 2.37215 15.742L11.5371 21.824C11.6651 21.912 11.8191 21.963 11.9851 21.963C12.1541 21.963 12.3081 21.912 12.4351 21.824L21.6001 15.742C21.6911 15.684 21.7721 15.608 21.8351 15.513C21.9291 15.372 21.9741 15.213 21.9711 15.057V8.89701C21.9741 8.74201 21.9301 8.58501 21.8381 8.44501ZM12.7811 4.27301L19.7341 8.88601L16.5511 10.998L12.7801 8.46201V4.27301H12.7811ZM11.1891 4.27301V8.46201L7.41815 10.998L4.23715 8.88701L11.1891 4.27301ZM3.59415 10.371L5.98915 11.961L3.59415 13.572V10.371ZM11.1891 19.682L4.22915 15.065L7.42415 12.915L11.1891 15.413V19.682ZM11.9841 14.029L8.85615 11.951L11.9841 9.84601L15.1151 11.951L11.9841 14.029ZM12.7811 19.682V15.412L16.5471 12.914L19.7401 15.064L12.7811 19.682ZM20.3781 13.572L17.9821 11.961L20.3781 10.371V13.572Z" fill="#9CA3AF"/>
  </svg>